<svg width="35" height="31" viewBox="0 0 35 31" fill="none" xmlns="http://www.w3.org/2000/svg">
<path d="M35 3.66782C33.6919 4.3034 32.3023 4.71723 30.8793 4.89498C32.3808 3.92142 33.5047 2.38432 34.0402 0.572038C32.6268 1.48122 31.082 2.12249 29.4717 2.46856C28.4866 1.32517 27.2089 0.530805 25.8043 0.188556C24.3998 -0.153693 22.9333 -0.028028 21.5951 0.549243C20.257 1.12651 19.1089 2.12874 18.2999 3.42586C17.491 4.72298 17.0584 6.25511 17.0585 7.82343C17.0569 8.42463 17.1213 9.02389 17.2505 9.60839C14.3952 9.45072 11.6021 8.64194 9.05171 7.23432C6.50129 5.82671 4.2503 3.85159 2.44424 1.43663C1.52545 3.15933 1.24427 5.19906 1.65803 7.13989C2.07179 9.08072 3.14933 10.7765 4.67093 11.8814C3.53167 11.842 2.41741 11.5074 1.42048 10.9053V11.0029C1.42045 12.8092 1.99391 14.5598 3.04356 15.9578C4.09321 17.3558 5.55439 18.315 7.17916 18.6726C6.5622 18.8579 5.92515 18.9517 5.28519 18.9515C4.83021 18.9472 4.37639 18.9006 3.9287 18.8121C4.38775 20.3665 5.2806 21.726 6.4827 22.7009C7.68479 23.6759 9.13618 24.2176 10.6344 24.2506C8.08871 26.4226 4.94794 27.6011 1.71481 27.5974C1.14173 27.5954 0.569221 27.5582 0 27.4859C3.2829 29.7841 7.10349 31.004 11.0055 31C24.2121 31 31.4296 19.077 31.4296 8.7438C31.4296 8.40912 31.4168 8.06049 31.404 7.72581C32.8146 6.617 34.0324 5.2428 35 3.66782Z" fill="#4c566a"/>
</svg>
