<svg width="38" height="31" viewBox="0 0 38 31" fill="none" xmlns="http://www.w3.org/2000/svg">
<path d="M32.2157 2.60399C29.7385 1.38467 27.1076 0.495997 24.3615 0C24.0158 0.64067 23.6317 1.50866 23.3628 2.19066C20.442 1.73599 17.5423 1.73599 14.6618 2.19066C14.3929 1.50866 13.9896 0.64067 13.6631 0C10.8979 0.495997 8.267 1.38467 5.80704 2.60399C0.833349 10.4986 -0.510899 18.2073 0.161223 25.8126C3.46421 28.3959 6.65202 29.9666 9.78411 31C10.5523 29.8839 11.2436 28.6852 11.8389 27.4246C10.7059 26.9699 9.63049 26.4119 8.5935 25.7506C8.86235 25.544 9.13121 25.3167 9.38086 25.0893C15.6412 28.1687 22.422 28.1687 28.6054 25.0893C28.8743 25.3167 29.1239 25.544 29.3928 25.7506C28.3557 26.4119 27.2804 26.9699 26.1474 27.4246C26.7427 28.6852 27.4341 29.8839 28.2021 31C31.3323 29.9666 34.5393 28.3959 37.825 25.8126C38.6507 17.0087 36.5172 9.36204 32.2157 2.60399ZM12.703 21.1213C10.8211 21.1213 9.2848 19.282 9.2848 17.0293C9.2848 14.7767 10.7827 12.9373 12.703 12.9373C14.6041 12.9373 16.1596 14.7767 16.1212 17.0293C16.1212 19.282 14.6041 21.1213 12.703 21.1213ZM25.3217 21.1213C23.4397 21.1213 21.9015 19.282 21.9015 17.0293C21.9015 14.7767 23.4013 12.9373 25.3217 12.9373C27.2228 12.9373 28.7782 14.7767 28.7398 17.0293C28.7398 19.282 27.242 21.1213 25.3217 21.1213Z" fill="#959DA5"/>
</svg>
