<svg width="31" height="31" viewBox="0 0 31 31" fill="none" xmlns="http://www.w3.org/2000/svg">
<path d="M6.50577 3.44582C6.50548 4.13137 6.31198 4.80123 5.95005 5.36966C5.58812 5.93809 5.07421 6.37922 4.47412 6.6366C3.87402 6.89397 3.21504 6.95588 2.58153 6.81439C1.94801 6.6729 1.36879 6.33446 0.917993 5.84237C0.467198 5.35029 0.165344 4.72697 0.0510693 4.05218C-0.0632054 3.3774 0.0152984 2.68185 0.276532 2.05458C0.537766 1.42732 0.969844 0.89686 1.51746 0.531117C2.06507 0.165374 2.70331 -0.0190156 3.35047 0.0015508C4.19617 0.0284263 4.9987 0.403134 5.58778 1.04617C6.17687 1.68921 6.50615 2.54997 6.50577 3.44582ZM6.60336 9.43886H0.0975882V31H6.60336V9.43886ZM16.8825 9.43886H10.4092V31H16.8174V19.6856C16.8174 13.3825 24.5756 12.797 24.5756 19.6856V31H31V17.3435C31 6.71788 19.5173 7.11397 16.8174 12.332L16.8825 9.43886Z" fill="#eceff4"/>
</svg>
