<svg width="23" height="22" viewBox="0 0 23 22" fill="none" xmlns="http://www.w3.org/2000/svg">
<path d="M21.3484 15.9201V18.9201C21.3495 19.1986 21.2924 19.4743 21.1807 19.7294C21.069 19.9846 20.9052 20.2137 20.6998 20.402C20.4944 20.5902 20.2518 20.7336 19.9877 20.8228C19.7236 20.912 19.4438 20.9452 19.1661 20.9201C16.0857 20.5857 13.1268 19.5342 10.5271 17.8501C8.10837 16.3148 6.05774 14.2663 4.52079 11.8501C2.829 9.2413 1.77617 6.27109 1.44758 3.1801C1.42256 2.90356 1.45546 2.62486 1.54418 2.36172C1.6329 2.09859 1.77549 1.85679 1.96288 1.65172C2.15027 1.44665 2.37836 1.28281 2.63261 1.17062C2.88686 1.05843 3.16171 1.00036 3.43966 1.0001H6.4428C6.92862 0.995321 7.3996 1.16718 7.76795 1.48363C8.13631 1.80008 8.3769 2.23954 8.4449 2.7201C8.57165 3.68016 8.80673 4.62282 9.14563 5.5301C9.28032 5.88802 9.30946 6.27701 9.22963 6.65098C9.14979 7.02494 8.9643 7.36821 8.69516 7.6401L7.42383 8.9101C8.84888 11.4136 10.9239 13.4865 13.4301 14.9101L14.7014 13.6401C14.9736 13.3712 15.3172 13.1859 15.6916 13.1062C16.066 13.0264 16.4554 13.0556 16.8137 13.1901C17.7219 13.5286 18.6655 13.7635 19.6266 13.8901C20.1129 13.9586 20.557 14.2033 20.8744 14.5776C21.1919 14.9519 21.3606 15.4297 21.3484 15.9201Z" stroke="#eceff4" stroke-width="2" stroke-linecap="round" stroke-linejoin="round"/>
</svg>
